<svg xmlns="http://www.w3.org/2000/svg" viewBox="0 0 128 128" role="img" aria-labelledby="title desc">
  <title id="title">Local Request Inspector icon</title>
  <desc id="desc">A code window and API document inside a magnifying glass.</desc>
  <defs>
    <linearGradient id="glassBlue" x1="0%" x2="100%" y1="0%" y2="100%">
      <stop offset="0%" stop-color="#8fd7ff" />
      <stop offset="100%" stop-color="#1b80e6" />
    </linearGradient>
    <linearGradient id="handleBlue" x1="0%" x2="100%" y1="0%" y2="100%">
      <stop offset="0%" stop-color="#7fd0ff" />
      <stop offset="100%" stop-color="#2176e0" />
    </linearGradient>
    <linearGradient id="windowFill" x1="0%" x2="100%" y1="0%" y2="100%">
      <stop offset="0%" stop-color="#f8fbff" />
      <stop offset="100%" stop-color="#d8e2f1" />
    </linearGradient>
    <linearGradient id="screenFill" x1="0%" x2="100%" y1="0%" y2="100%">
      <stop offset="0%" stop-color="#445270" />
      <stop offset="100%" stop-color="#25314d" />
    </linearGradient>
  </defs>

  <g fill="none" fill-rule="evenodd">
    <g transform="translate(14 18)">
      <rect width="68" height="56" x="0" y="10" fill="url(#windowFill)" stroke="#2f3b56" stroke-width="3"/>
      <path fill="#f5f8ff" d="M8 18h52a6 6 0 0 1 6 6v10H2V24a6 6 0 0 1 6-6Z"/>
      <circle cx="10" cy="24" r="4" fill="#ef4f47"/>
      <circle cx="24" cy="24" r="4" fill="#ffb531"/>
      <circle cx="38" cy="24" r="4" fill="#4cc75a"/>
      <rect width="48" height="30" x="10" y="34" fill="url(#screenFill)" rx="2"/>
      <path fill="#ffffff" d="M26.8 42.4c-1.8.8-3.2 2.6-3.2 5.2 0 2.4 1.2 4.2 3.2 5.2v4.4c-4-1-7.2-4.4-7.2-9.6s3.2-8.6 7.2-9.6v4.4Zm13.4-4.4c4 1 7.2 4.4 7.2 9.6s-3.2 8.6-7.2 9.6v-4.4c2-.8 3.2-2.6 3.2-5.2 0-2.4-1.4-4.2-3.2-5.2v-4.4Zm-5.6-2h4v24h-4v-24Z"/>
    </g>

    <g transform="translate(50 34)">
      <circle cx="36" cy="36" r="32" fill="#eef4ff" stroke="#2f3b56" stroke-width="3"/>
      <circle cx="36" cy="36" r="26" fill="url(#glassBlue)" stroke="#1e5fb8" stroke-width="3"/>
      <path fill="#ffffff" fill-opacity=".2" d="M18 22c0-7.7 6.3-14 14-14h14c-12 3-21 12.4-24 24V22Z"/>
      <rect width="26" height="30" x="24" y="16" fill="#f9fbff" rx="2"/>
      <path fill="#d2dae8" d="M42 16v8h8z"/>
      <path fill="#8d97ac" d="M42 16v8h8z"/>
      <text x="27" y="28" fill="#37a4e8" font-family="Segoe UI, Arial, sans-serif" font-size="12" font-weight="700">API</text>
      <circle cx="33" cy="36" r="3" fill="#c3c9d6"/>
      <circle cx="46" cy="36" r="3" fill="#c3c9d6"/>
      <path stroke="#9aa3b5" stroke-linecap="round" stroke-width="2.8" d="M36 36h7"/>
      <path fill="#f3a41a" d="M26 48h5v-6h4l-6.5-7L22 42h4z"/>
      <path fill="#39c15b" d="M51 35l6.5 7h-4v6h-5v-6h-4z"/>
    </g>

    <g transform="translate(20 76) rotate(-40 22 13)">
      <rect width="40" height="16" x="2" y="5" fill="#c9d3e5" stroke="#2f3b56" stroke-width="3" rx="8"/>
      <rect width="28" height="16" x="0" y="5" fill="url(#handleBlue)" stroke="#2f3b56" stroke-width="3" rx="8"/>
    </g>
  </g>
</svg>
